<?xml version="1.0" encoding="utf-8"?>
<!-- Generator: Adobe Illustrator 23.0.5, SVG Export Plug-In . SVG Version: 6.00 Build 0)  -->
<svg width="414.35" height="104.3" version="1.1" id="Layer_1" xmlns="http://www.w3.org/2000/svg" xmlns:xlink="http://www.w3.org/1999/xlink" x="0px" y="0px"
	 viewBox="0 0 414.35 104.3" style="enable-background:new 0 0 414.35 104.3;" xml:space="preserve">
<style type="text/css">
	.st0{fill:#FFFFFF;}
</style>
<g>
	<path class="st0" d="M56.07,38.37c-1.43-3.3-3.37-6.16-5.79-8.59c-2.43-2.43-5.29-4.36-8.59-5.79c-3.29-1.43-6.84-2.15-10.63-2.15
		c-3.79,0-7.34,0.72-10.63,2.15c-3.3,1.43-6.18,3.37-8.64,5.79c-2.47,2.43-4.41,5.29-5.84,8.59C4.51,41.66,3.79,45.21,3.79,49
		s0.65,7.34,1.95,10.63c1.3,3.3,3.13,6.18,5.49,8.64c2.36,2.47,5.22,4.4,8.59,5.79c3.36,1.4,7.1,2.1,11.23,2.1
		c5.79,0,10.99-1.63,15.58-4.89v2.8h11.58V49C58.21,45.21,57.5,41.66,56.07,38.37z M45.43,55.24c-0.8,1.9-1.92,3.54-3.36,4.94
		c-1.43,1.4-3.1,2.48-5.01,3.24c-1.9,0.77-3.92,1.15-6.06,1.15c-2.14,0-4.16-0.42-6.06-1.25c-1.9-0.84-3.55-1.95-4.96-3.35
		c-1.4-1.4-2.52-3.05-3.36-4.94c-0.84-1.89-1.25-3.91-1.25-6.04c0-2.13,0.42-4.15,1.25-6.04c0.84-1.9,1.95-3.55,3.36-4.94
		c1.41-1.4,3.06-2.51,4.96-3.35c1.9-0.83,3.93-1.25,6.06-1.25c2.14,0,4.16,0.42,6.06,1.25c1.9,0.84,3.56,1.95,4.96,3.35
		c1.4,1.4,2.52,3.05,3.36,4.94c0.84,1.89,1.25,3.91,1.25,6.04C46.63,51.27,46.23,53.34,45.43,55.24z"/>
	<path class="st0" d="M97.66,53.79c-0.73-1.86-1.74-3.46-3.05-4.79c-1.3-1.33-2.81-2.46-4.54-3.4c-1.73-0.93-3.59-1.73-5.59-2.4
		c-3.39-1.13-5.94-2.03-7.64-2.69c-1.7-0.67-2.68-1.57-2.95-2.7c-0.4-1.86,0.06-3.29,1.4-4.29c1.33-1,2.83-1.5,4.49-1.5
		c2.8,0,4.53,0.63,5.2,1.89h11.68c-0.34-1.4-0.97-2.81-1.9-4.24c-0.93-1.43-2.13-2.73-3.59-3.89c-1.47-1.16-3.13-2.11-5-2.85
		c-1.86-0.73-3.86-1.1-5.99-1.1c-2.53,0-4.91,0.45-7.14,1.35c-2.23,0.9-4.18,2.11-5.84,3.64c-1.66,1.53-2.93,3.33-3.79,5.39
		c-0.86,2.07-1.2,4.3-1,6.69c0.26,2.4,0.89,4.41,1.89,6.04c1,1.63,2.25,3,3.74,4.1c1.5,1.1,3.15,1.98,4.94,2.64
		c1.8,0.67,3.63,1.23,5.49,1.7c2.79,0.74,4.91,1.53,6.34,2.4c1.43,0.87,2.11,2.3,2.05,4.3c-0.07,1.33-0.7,2.59-1.91,3.79
		c-1.21,1.2-2.81,1.8-4.83,1.8c-2.15,0-3.87-0.68-5.18-2.05c-1.31-1.37-2-2.94-2.06-4.74H61.31c0,2.6,0.57,4.98,1.7,7.14
		c1.13,2.16,2.58,4,4.34,5.49c1.76,1.5,3.76,2.66,5.99,3.5c2.23,0.83,4.44,1.25,6.64,1.25c2.46,0,4.83-0.37,7.09-1.1
		c2.26-0.73,4.26-1.78,5.99-3.15c1.73-1.36,3.11-3.03,4.15-4.99c1.03-1.96,1.55-4.21,1.55-6.74C98.76,57.82,98.39,55.66,97.66,53.79
		z"/>
	<path class="st0" d="M135.34,88.55c-3.03,0-5.52,2.33-5.77,5.29h11.54C140.86,90.87,138.37,88.55,135.34,88.55z"/>
	<g>
		<g>
			<path class="st0" d="M181.72,38.46c-1.43-3.29-3.36-6.15-5.79-8.59c-2.43-2.43-5.3-4.36-8.59-5.79
				c-3.3-1.43-6.84-2.15-10.64-2.15c-3.79,0-7.34,0.7-10.63,2.1c-3.3,1.4-6.18,3.31-8.64,5.74c-2.47,2.43-4.39,5.29-5.79,8.59
				c-1.4,3.29-2.1,6.87-2.1,10.73v40.3c1.4-1.64,3.47-2.68,5.79-2.68c2.31,0,4.39,1.04,5.79,2.68V70.37c0.87,0.8,1.9,1.55,3.1,2.25
				c1.2,0.7,2.48,1.31,3.84,1.84c1.37,0.53,2.78,0.97,4.25,1.3c1.47,0.33,2.93,0.5,4.39,0.5c3.79,0,7.34-0.72,10.64-2.15
				c3.29-1.43,6.15-3.36,8.59-5.79c2.43-2.43,4.36-5.29,5.79-8.59c1.43-3.3,2.15-6.84,2.15-10.63
				C183.87,45.31,183.15,41.76,181.72,38.46z M171.04,55.14c-0.83,1.9-1.95,3.55-3.35,4.94c-1.4,1.4-3.05,2.51-4.94,3.34
				c-1.9,0.84-3.91,1.25-6.05,1.25c-2.13,0-4.14-0.42-6.04-1.25c-1.89-0.83-3.54-1.95-4.94-3.34c-1.4-1.4-2.52-3.05-3.35-4.94
				c-0.84-1.89-1.25-3.91-1.25-6.04c0-2.13,0.42-4.15,1.25-6.04c0.83-1.9,1.95-3.55,3.35-4.94c1.4-1.4,3.05-2.51,4.94-3.35
				c1.9-0.83,3.91-1.25,6.04-1.25c2.13,0,4.15,0.42,6.05,1.25c1.89,0.84,3.54,1.95,4.94,3.35c1.4,1.4,2.52,3.05,3.35,4.94
				c0.83,1.89,1.25,3.91,1.25,6.04C172.28,51.23,171.87,53.25,171.04,55.14z"/>
		</g>
	</g>
	<path class="st0" d="M231.16,35.77c-1.1-2.76-2.65-5.18-4.64-7.24c-2-2.06-4.4-3.69-7.19-4.89c-2.8-1.2-5.89-1.8-9.29-1.8
		c-3.93,0-7.56,1.03-10.89,3.1V4.16h-11.78v69.9h11.89V44.61c0-1.4,0.3-2.76,0.9-4.1c0.6-1.33,1.4-2.51,2.39-3.55
		c1-1.03,2.15-1.84,3.45-2.44c1.3-0.6,2.65-0.9,4.05-0.9c1.53,0,2.96,0.28,4.29,0.85c1.33,0.57,2.5,1.35,3.5,2.35
		c1,1,1.78,2.16,2.35,3.49c0.56,1.33,0.85,2.73,0.85,4.2l0.1,29.56h11.68V44.61C232.8,41.48,232.25,38.53,231.16,35.77z"/>
	<path class="st0" d="M289.28,38.37c-1.43-3.3-3.37-6.16-5.79-8.59c-2.43-2.43-5.29-4.36-8.59-5.79c-3.29-1.43-6.84-2.15-10.63-2.15
		c-3.79,0-7.34,0.72-10.63,2.15c-3.3,1.43-6.18,3.37-8.64,5.79c-2.47,2.43-4.41,5.29-5.84,8.59C237.71,41.66,237,45.21,237,49
		s0.65,7.34,1.95,10.63c1.3,3.3,3.13,6.18,5.49,8.64c2.36,2.47,5.22,4.4,8.58,5.79c3.37,1.4,7.11,2.1,11.24,2.1
		c5.79,0,10.99-1.63,15.58-4.89v2.8h11.58V49C291.42,45.21,290.7,41.66,289.28,38.37z M278.63,55.24c-0.8,1.9-1.92,3.54-3.36,4.94
		c-1.43,1.4-3.1,2.48-5.01,3.24c-1.9,0.77-3.92,1.15-6.06,1.15c-2.14,0-4.16-0.42-6.06-1.25c-1.9-0.84-3.56-1.95-4.96-3.35
		c-1.4-1.4-2.52-3.05-3.36-4.94c-0.84-1.89-1.25-3.91-1.25-6.04c0-2.13,0.42-4.15,1.25-6.04c0.84-1.9,1.95-3.55,3.36-4.94
		c1.4-1.4,3.05-2.51,4.96-3.35c1.9-0.83,3.93-1.25,6.06-1.25c2.14,0,4.16,0.42,6.06,1.25c1.9,0.84,3.56,1.95,4.96,3.35
		c1.4,1.4,2.52,3.05,3.36,4.94c0.83,1.89,1.25,3.91,1.25,6.04C279.84,51.27,279.44,53.34,278.63,55.24z"/>
	<path class="st0" d="M315.99,25.28c-3.06,0.9-5.79,2.18-8.19,3.84v-4.99h-11.58v49.93h11.58V51.2c0-2.13,0.48-4.15,1.45-6.04
		c0.96-1.9,2.28-3.56,3.94-5c1.66-1.43,3.59-2.56,5.79-3.39c2.2-0.84,4.56-1.25,7.09-1.25V23.93
		C322.41,23.93,319.05,24.39,315.99,25.28z"/>
	<path class="st0" d="M410.46,44.61c0-3.13-0.6-6.08-1.8-8.84c-1.2-2.76-2.81-5.18-4.84-7.24c-2.03-2.06-4.43-3.69-7.19-4.89
		c-2.77-1.2-5.71-1.8-8.84-1.8c-3.33,0-6.49,0.68-9.49,2.05c-3,1.37-5.56,3.21-7.69,5.54c-2.06-2.33-4.48-4.18-7.24-5.54
		c-2.76-1.36-5.84-2.05-9.24-2.05c-2.26,0-4.26,0.4-5.99,1.2c-1.74,0.8-3.37,2.1-4.89,3.89v-2.79h-11.78l0.1,49.93h11.78l-0.1-29.46
		c0-1.4,0.28-2.76,0.85-4.1c0.57-1.33,1.35-2.51,2.35-3.55c1-1.03,2.15-1.84,3.45-2.44c1.3-0.6,2.71-0.9,4.24-0.9
		c1.47,0,2.88,0.28,4.25,0.85c1.36,0.57,2.54,1.35,3.54,2.35c1,1,1.78,2.16,2.35,3.49c0.57,1.33,0.85,2.76,0.85,4.3l0.1,29.46H377
		l-0.1-29.46c0-1.47,0.28-2.86,0.85-4.2c0.57-1.33,1.35-2.5,2.35-3.49c1-1,2.15-1.8,3.44-2.4c1.3-0.6,2.71-0.9,4.25-0.9
		c1.46,0,2.86,0.3,4.2,0.9c1.33,0.6,2.49,1.4,3.49,2.4c1,1,1.78,2.16,2.35,3.49c0.57,1.33,0.85,2.73,0.85,4.2l0.1,29.46h11.78
		L410.46,44.61z"/>
	<g>
		<g>
			<path class="st0" d="M141.13,94.34c0,3.2-2.59,5.79-5.79,5.79c-3.2,0-5.79-2.59-5.79-5.79c0-0.17,0.01-0.34,0.02-0.5
				c0.25-2.96,2.74-5.29,5.77-5.29c3.03,0,5.52,2.33,5.77,5.29C141.12,94,141.13,94.17,141.13,94.34z"/>
		</g>
	</g>
</g>
</svg>
